<svg xmlns="http://www.w3.org/2000/svg" viewBox="0 0 1000 1000" width="1000" height="1000">
	<defs>
		<clipPath clipPathUnits="userSpaceOnUse" id="cp1">
			<path d="M0 0L1000 0L1000 1000L0 1000Z" />
		</clipPath>
		<linearGradient id="grd1" gradientUnits="userSpaceOnUse"  x1="500" y1="1000" x2="500" y2="0">
			<stop offset="0" stop-color="#000000"  />
			<stop offset="1" stop-color="#000000"  />
		</linearGradient>
		<linearGradient id="grd2" gradientUnits="userSpaceOnUse"  x1="-150.681" y1="834.4" x2="713.768" y2="372.063">
			<stop offset="0" stop-color="#baf257"  />
			<stop offset="0.471" stop-color="#ff74c8"  />
			<stop offset="1" stop-color="#8081f2"  />
		</linearGradient>
		<linearGradient id="grd3" gradientUnits="userSpaceOnUse"  x1="-27.013" y1="848.875" x2="763.962" y2="425.834">
			<stop offset="0" stop-color="#baf257"  />
			<stop offset="0.471" stop-color="#ff74c8"  />
			<stop offset="1" stop-color="#8081f2"  />
		</linearGradient>
		<radialGradient id="grd4" gradientUnits="userSpaceOnUse"  cx="502.32" cy="614.908" r="184.995">
			<stop offset="0" stop-color="#000000"  />
			<stop offset="0.769" stop-color="#000000"  />
			<stop offset="1" stop-color="#575757"  />
		</radialGradient>
		<linearGradient id="grd5" gradientUnits="userSpaceOnUse"  x1="-147.12" y1="792.94" x2="707.601" y2="335.806">
			<stop offset="0" stop-color="#ae7eff"  />
			<stop offset="0.471" stop-color="#ff5be6"  />
			<stop offset="0.99" stop-color="#ffde72"  />
			<stop offset="1" stop-color="#ffde72"  />
		</linearGradient>
		<linearGradient id="grd6" gradientUnits="userSpaceOnUse"  x1="282.944" y1="684.975" x2="638.057" y2="329.862">
			<stop offset="0" stop-color="#4f0895"  />
			<stop offset="1" stop-color="#8536ff"  />
			<stop offset="1" stop-color="#8536ff"  />
		</linearGradient>
	</defs>
	<style>
		tspan { white-space:pre }
		.shp0 { fill: url(#grd1) } 
		.shp1 { fill: url(#grd2) } 
		.shp2 { mix-blend-mode: color-burn;fill: url(#grd3) } 
		.shp3 { opacity: 0.4;mix-blend-mode: color-dodge;fill: url(#grd4) } 
		.shp4 { mix-blend-mode: soft-light;fill: url(#grd5) } 
		.shp5 { fill: url(#grd6) } 
	</style>
	<g id="Page 1" clip-path="url(#cp1)">
		<path id="Path 1" class="shp0" d="M0 1000L1000 1000L1000 0L0 0L0 1000Z" />
		<text id=" " style="transform: matrix(1,0,0,1,240.013,721.92)" >
		</text>
		<text id="  " style="transform: matrix(1,0,0,1,287.909,776.08)" >
		</text>
		<path id="Path 4" fill-rule="evenodd" class="shp1" d="M459.89 303.76C483.41 303.76 507.34 307.52 530.86 315.43C623.79 346.69 682.47 433.34 682.49 526.25C682.5 547.52 679.43 569.11 672.99 590.45C672.3 592.73 671.58 595.01 670.81 597.28C631.63 713.76 505.45 776.43 388.97 737.24C296.03 705.98 237.36 619.33 237.34 526.42C237.33 502.88 241.09 478.93 249.01 455.39C280.28 362.43 366.95 303.75 459.89 303.76ZM459.9 400.72C407.46 400.72 358.54 433.84 340.89 486.3C318.78 552.03 354.14 623.25 419.88 645.36C420.92 645.71 421.95 646.04 422.99 646.36C435.27 650.14 447.69 651.95 459.93 651.95C461.06 651.95 462.18 651.93 463.3 651.9L463.3 651.9C463.31 651.9 463.31 651.9 463.31 651.9C514.47 650.51 561.67 617.7 578.94 566.37C583.39 553.15 585.51 539.7 585.53 526.48C585.6 473.97 552.47 424.97 499.95 407.31C488.85 403.57 477.6 401.48 466.45 400.89C464.27 400.78 462.08 400.72 459.9 400.72Z" />
		<path id="Path 5" fill-rule="evenodd" class="shp2" d="M748.51 623.01C708.23 742.76 578.49 807.18 458.74 766.89C338.99 726.61 274.58 596.88 314.86 477.13C355.14 357.38 484.87 292.96 604.62 333.24C724.38 373.52 788.79 503.25 748.51 623.01ZM654.05 591.23C676.79 523.65 640.43 450.43 572.85 427.7C505.28 404.97 432.06 441.32 409.32 508.9C386.59 576.48 422.94 649.7 490.52 672.43C558.11 695.17 631.32 658.81 654.05 591.23Z" />
		<path id="Path 6" fill-rule="evenodd" class="shp3" d="M699.33 681.18C662.73 789.99 544.86 848.53 436.04 811.92C327.24 775.32 268.7 657.45 305.31 548.63C341.91 439.82 459.79 381.29 568.59 417.89C677.41 454.5 735.93 572.38 699.33 681.18ZM613.51 652.31C634.17 590.91 601.13 524.38 539.72 503.72C478.31 483.06 411.79 516.1 391.14 577.5C370.48 638.91 403.51 705.44 464.92 726.1C526.32 746.75 592.85 713.72 613.51 652.31Z" />
		<path id="Path 7" fill-rule="evenodd" class="shp4" d="M757.78 526.23C711.45 663.96 562.24 738.06 424.51 691.73C286.78 645.39 212.69 496.18 259.02 358.45C305.36 220.72 454.57 146.63 592.3 192.96C730.03 239.29 804.12 388.5 757.78 526.23ZM649.14 489.69C675.28 411.96 633.48 327.75 555.75 301.6C478.02 275.46 393.81 317.27 367.67 395C341.52 472.73 383.33 556.94 461.06 583.08C538.79 609.23 623 567.42 649.14 489.69Z" />
		<path id="Path 8" fill-rule="evenodd" class="shp5" d="M360.99 254.75C367.85 254.75 373.82 259.82 374.76 266.81C375.06 268.97 374.82 271.08 374.18 273.02L596.27 318.83C597.34 313.08 601.98 308.41 608.09 307.58C615.7 306.55 622.72 311.89 623.75 319.51C624.44 324.67 622.21 329.55 618.34 332.48L700.2 445.02C701.86 443.95 703.77 443.2 705.86 442.92C713.48 441.89 720.49 447.23 721.53 454.85C722.38 461.2 718.81 467.11 713.19 469.51L726.31 505.94C726.91 505.78 727.52 505.64 728.15 505.55C735.77 504.52 742.78 509.86 743.81 517.49C744.84 525.1 739.5 532.11 731.89 533.14C728.4 533.61 725.04 532.74 722.32 530.93L596.46 714.71C597.49 716.35 598.21 718.22 598.49 720.26C599.52 727.88 594.18 734.89 586.56 735.92C579.91 736.82 573.72 732.86 571.57 726.77L345.32 716.45C344.63 722.65 339.82 727.83 333.36 728.7C325.75 729.73 318.73 724.39 317.7 716.78C316.81 710.17 320.71 704.01 326.74 701.83L246.69 481.12C246.03 481.32 245.36 481.48 244.66 481.57C237.04 482.6 230.03 477.26 229 469.64C227.96 462.02 233.3 455.01 240.92 453.98C243.57 453.62 246.14 454.05 248.42 455.06L353.16 280.18C350.01 278.03 347.73 274.62 347.18 270.54C346.14 262.92 351.49 255.91 359.1 254.88C359.74 254.79 360.37 254.75 360.99 254.75ZM523.89 404.38C525.8 402.83 528.14 401.76 530.76 401.4C535.08 400.82 539.2 402.29 542.15 405.05L599.08 331.82L600.61 333.01L543.47 406.5C545.01 408.41 546.06 410.73 546.42 413.34C546.84 416.43 546.19 419.41 544.78 421.95L658.95 517.94C659.9 516.95 661.01 516.1 662.23 515.42L612.42 335.06C612.22 335.09 612.02 335.14 611.82 335.17C604.2 336.2 597.19 330.86 596.16 323.24C596.05 322.4 596.02 321.58 596.06 320.76L373.45 274.84C373.1 275.55 372.68 276.22 372.22 276.86L523.89 404.38ZM390.6 585.79C393.97 585.47 397.18 586.37 399.78 588.16L525.14 426.93C521.81 424.8 519.4 421.29 518.83 417.07C518.25 412.76 519.7 408.65 522.45 405.7L370.98 278.34C368.98 280.41 366.34 281.87 363.31 282.38L390.6 585.79ZM381.15 590.83C383.03 588.53 385.63 586.81 388.69 586.09L361.39 282.59C359.05 282.66 356.81 282.15 354.83 281.17L250.14 455.96C253.54 458.07 256 461.63 256.58 465.91C257.08 469.6 256.08 473.13 254.06 475.92L381.15 590.83ZM664.01 514.6C664.98 514.23 666 513.96 667.08 513.81C669.04 513.55 670.97 513.71 672.76 514.23L699.84 468.17C696.72 466.02 694.48 462.63 693.93 458.58C693.27 453.74 695.2 449.15 698.65 446.17L616.72 333.53C615.95 333.96 615.14 334.31 614.29 334.59L664.01 514.6ZM532.63 429.12C530.6 429.12 528.64 428.67 526.87 427.86L401.3 589.36C403.25 591.14 404.7 593.47 405.39 596.16L655.11 528.97C654.76 525.45 655.76 522.09 657.7 519.42L543.73 423.59C541.57 426.45 538.32 428.48 534.49 428.99C533.86 429.08 533.24 429.12 532.63 429.12ZM682.27 523.64L716.12 519.06C716.22 513.59 719.55 508.72 724.49 506.58L711.37 470.14C710.79 470.29 710.2 470.43 709.59 470.51C706.71 470.9 703.92 470.38 701.5 469.17L674.61 514.91C678.23 516.53 681.09 519.67 682.27 523.64ZM328.61 701.3C328.94 701.23 329.28 701.16 329.63 701.11C332.54 700.72 335.36 701.26 337.79 702.5L384.56 611.45C381.17 609.33 378.7 605.78 378.12 601.5C377.68 598.21 378.42 595.04 380.02 592.41L252.83 477.41C251.61 478.68 250.15 479.72 248.51 480.46L328.61 701.3ZM668.94 541.53C666.58 541.53 664.32 540.92 662.33 539.84L594.07 711.84C594.48 712.22 594.88 712.63 595.25 713.06L720.78 529.75C718.38 527.62 716.69 524.65 716.22 521.22C716.22 521.15 716.22 521.07 716.21 521L682.7 525.53C682.71 525.61 682.73 525.67 682.74 525.75C683.77 533.36 678.42 540.37 670.81 541.4C670.18 541.49 669.56 541.53 668.94 541.53ZM572.28 715.83C574.28 711.89 578.11 708.96 582.83 708.33C586.35 707.85 589.74 708.75 592.47 710.6L660.67 538.79C658.11 536.9 656.2 534.15 655.42 530.89L405.74 598.07C406.14 601.62 405.17 605.01 403.23 607.71L572.28 715.83ZM391.93 613.55C389.94 613.55 388.02 613.12 386.28 612.34L339.45 703.51C342.53 705.66 344.75 709.03 345.29 713.04C345.36 713.54 345.4 714.03 345.41 714.52L571.05 724.81C571 724.54 570.93 724.27 570.9 723.99C570.6 721.78 570.85 719.62 571.52 717.64L402 609.22C399.89 611.43 397.05 612.98 393.78 613.42C393.16 613.51 392.54 613.55 391.93 613.55Z" />
	</g>
</svg>